REM DIRINDEX 1\2,1\3,1\4,1\5
REM DIRNAME folder01,folder02,folder03,folder04,folder05
TITLE ""
FILE "P1Q_t_0252-0261.mp3" MP3
  TRACK 01 AUDIO
    TITLE "3:cjc005_1657"
    INDEX 01 00:00:00
  TRACK 02 AUDIO
    TITLE "0:"
    INDEX 01 00:01:05
  TRACK 03 AUDIO
    TITLE "4:cjc005_1658"
    INDEX 01 00:01:24
  TRACK 04 AUDIO
    TITLE "0:"
    INDEX 01 00:02:55
  TRACK 05 AUDIO
    TITLE "5:cjc005_1659"
    INDEX 01 00:03:04
  TRACK 06 AUDIO
    TITLE "0:"
    INDEX 01 00:08:01
  TRACK 07 AUDIO
    TITLE "3:cjc005_1660"
    INDEX 01 00:08:52
  TRACK 08 AUDIO
    TITLE "0:"
    INDEX 01 00:09:69
  TRACK 09 AUDIO
    TITLE "4:cjc005_1661"
    INDEX 01 00:10:25
  TRACK 10 AUDIO
    TITLE "0:"
    INDEX 01 00:11:54
  TRACK 11 AUDIO
    TITLE "5:cjc005_1662"
    INDEX 01 00:12:07
  TRACK 12 AUDIO
    TITLE "0:"
    INDEX 01 00:17:04
  TRACK 13 AUDIO
    TITLE "3:cjc005_1663"
    INDEX 01 00:17:59
  TRACK 14 AUDIO
    TITLE "0:"
    INDEX 01 00:18:70
  TRACK 15 AUDIO
    TITLE "4:cjc005_1664"
    INDEX 01 00:19:15
  TRACK 16 AUDIO
    TITLE "0:"
    INDEX 01 00:20:26
  TRACK 17 AUDIO
    TITLE "5:cjc005_1665"
    INDEX 01 00:20:49
  TRACK 18 AUDIO
    TITLE "0:"
    INDEX 01 00:24:29
  TRACK 19 AUDIO
    TITLE "3:cjc005_1666"
    INDEX 01 00:25:05
  TRACK 20 AUDIO
    TITLE "0:"
    INDEX 01 00:26:07
  TRACK 21 AUDIO
    TITLE "4:cjc005_1667"
    INDEX 01 00:26:32
  TRACK 22 AUDIO
    TITLE "0:"
    INDEX 01 00:27:43
  TRACK 23 AUDIO
    TITLE "5:cjc005_1668"
    INDEX 01 00:27:69
  TRACK 24 AUDIO
    TITLE "0:"
    INDEX 01 00:32:62
  TRACK 25 AUDIO
    TITLE "3:cjc005_1669"
    INDEX 01 00:33:42
  TRACK 26 AUDIO
    TITLE "0:"
    INDEX 01 00:34:51
  TRACK 27 AUDIO
    TITLE "4:cjc005_1670"
    INDEX 01 00:35:02
  TRACK 28 AUDIO
    TITLE "0:"
    INDEX 01 00:36:07
  TRACK 29 AUDIO
    TITLE "5:cjc005_1671"
    INDEX 01 00:36:31
  TRACK 30 AUDIO
    TITLE "0:"
    INDEX 01 00:39:74
  TRACK 31 AUDIO
    TITLE "3:cjc005_1672"
    INDEX 01 00:40:48
  TRACK 32 AUDIO
    TITLE "0:"
    INDEX 01 00:42:02
  TRACK 33 AUDIO
    TITLE "4:cjc005_1673"
    INDEX 01 00:42:31
  TRACK 34 AUDIO
    TITLE "0:"
    INDEX 01 00:43:39
  TRACK 35 AUDIO
    TITLE "5:cjc005_1674"
    INDEX 01 00:43:64
  TRACK 36 AUDIO
    TITLE "0:"
    INDEX 01 00:48:67
  TRACK 37 AUDIO
    TITLE "3:cjc005_1675"
    INDEX 01 00:49:45
  TRACK 38 AUDIO
    TITLE "0:"
    INDEX 01 00:50:64
  TRACK 39 AUDIO
    TITLE "4:cjc005_1676"
    INDEX 01 00:51:11
  TRACK 40 AUDIO
    TITLE "0:"
    INDEX 01 00:52:67
  TRACK 41 AUDIO
    TITLE "5:cjc005_1677"
    INDEX 01 00:53:15
  TRACK 42 AUDIO
    TITLE "0:"
    INDEX 01 00:58:01
  TRACK 43 AUDIO
    TITLE "3:cjc005_1678"
    INDEX 01 00:58:48
  TRACK 44 AUDIO
    TITLE "0:"
    INDEX 01 00:59:51
  TRACK 45 AUDIO
    TITLE "4:cjc005_1679"
    INDEX 01 01:00:00
  TRACK 46 AUDIO
    TITLE "0:"
    INDEX 01 01:01:13
  TRACK 47 AUDIO
    TITLE "5:cjc005_1680"
    INDEX 01 01:01:33
  TRACK 48 AUDIO
    TITLE "0:"
    INDEX 01 01:04:60
  TRACK 49 AUDIO
    TITLE "3:cjc005_1681"
    INDEX 01 01:05:24
  TRACK 50 AUDIO
    TITLE "0:"
    INDEX 01 01:06:28
  TRACK 51 AUDIO
    TITLE "4:cjc005_1682"
    INDEX 01 01:06:57
  TRACK 52 AUDIO
    TITLE "0:"
    INDEX 01 01:07:47
  TRACK 53 AUDIO
    TITLE "5:cjc005_1683"
    INDEX 01 01:07:74
  TRACK 54 AUDIO
    TITLE "0:"
    INDEX 01 01:12:30
  TRACK 55 AUDIO
    TITLE "3:cjc005_1684"
    INDEX 01 01:13:04
  TRACK 56 AUDIO
    TITLE "0:"
    INDEX 01 01:14:14
  TRACK 57 AUDIO
    TITLE "4:cjc005_1685"
    INDEX 01 01:14:39
  TRACK 58 AUDIO
    TITLE "0:"
    INDEX 01 01:15:54
  TRACK 59 AUDIO
    TITLE "5:cjc005_1686"
    INDEX 01 01:16:03
  TRACK 60 AUDIO
    TITLE "0:"
    INDEX 01 01:20:08
